HIERARCHY
ROOT hip
{
  OFFSET 0 0 0
  CHANNELS 6 Xposition Yposition Zposition Zrotation Yrotation Xrotation
  JOINT abdomen
  {
    OFFSET 0 20.6881 -0.73152
    CHANNELS 3 Zrotation Xrotation Yrotation
    JOINT chest
    {
      OFFSET 0 11.7043 -0.48768
      CHANNELS 3 Zrotation Xrotation Yrotation
      JOINT neck
      {
        OFFSET 0 22.1894 -2.19456
        CHANNELS 3 Zrotation Xrotation Yrotation
        JOINT head
        {
          OFFSET -0.24384 7.07133 1.2192
          CHANNELS 3 Zrotation Xrotation Yrotation
          JOINT leftEye
          {
            OFFSET 4.14528 8.04674 8.04672
            CHANNELS 3 Zrotation Xrotation Yrotation
            End Site
            {
              OFFSET 1 0 0
            }
          }
          JOINT rightEye
          {
            OFFSET -3.6576 8.04674 8.04672
            CHANNELS 3 Zrotation Xrotation Yrotation
            End Site
            {
              OFFSET 1 0 0
            }
          }
        }
      }
      JOINT rCollar
      {
        OFFSET -2.68224 19.2634 -4.8768
        CHANNELS 3 Zrotation Xrotation Yrotation
        JOINT rShldr
        {
          OFFSET -8.77824 -1.95073 1.46304
          CHANNELS 3 Zrotation Xrotation Yrotation
          JOINT rForeArm
          {
            OFFSET -28.1742 -1.7115 0.48768
            CHANNELS 3 Zrotation Xrotation Yrotation
            JOINT rHand
            {
              OFFSET -22.5879 0.773209 7.07136
              CHANNELS 3 Zrotation Xrotation Yrotation
              JOINT rThumb1
              {
                OFFSET -1.2192 -0.487915 3.41376
                CHANNELS 3 Zrotation Xrotation Yrotation
                JOINT rThumb2
                {
                  OFFSET -3.37035 -0.52449 3.41376
                  CHANNELS 3 Zrotation Xrotation Yrotation
                  End Site
                  {
                    OFFSET -1.78271 -1.18214 1.43049
                  }
                }
              }
              JOINT rIndex1
              {
                OFFSET -7.75947 0.938293 5.60832
                CHANNELS 3 Zrotation Xrotation Yrotation
                JOINT rIndex2
                {
                  OFFSET -2.54057 -0.884171 1.56538
                  CHANNELS 3 Zrotation Xrotation Yrotation
                  End Site
                  {
                    OFFSET -1.62519 -0.234802 1.16502
                  }
                }
              }
              JOINT rMid1
              {
                OFFSET -8.24714 1.18213 3.41376
                CHANNELS 3 Zrotation Xrotation Yrotation
                JOINT rMid2
                {
                  OFFSET -3.10165 -0.590103 1.0647
                  CHANNELS 3 Zrotation Xrotation Yrotation
                  End Site
                  {
                    OFFSET -2.48547 -0.328903 0.83742
                  }
                }
              }
              JOINT rRing1
              {
                OFFSET -8.82822 0.546677 1.51678
                CHANNELS 3 Zrotation Xrotation Yrotation
                JOINT rRing2
                {
                  OFFSET -2.60934 -0.819778 -0.0198488
                  CHANNELS 3 Zrotation Xrotation Yrotation
                  End Site
                  {
                    OFFSET -2.33842 -0.294052 0.168128
                  }
                }
              }
              JOINT rPinky1
              {
                OFFSET -8.27202 -0.0477905 -0.4584
                CHANNELS 3 Zrotation Xrotation Yrotation
                JOINT rPinky2
                {
                  OFFSET -1.82734 -0.647385 -0.700984
                  CHANNELS 3 Zrotation Xrotation Yrotation
                  End Site
                  {
                    OFFSET -1.69225 -0.51767 -0.607171
                  }
                }
              }
            }
          }
        }
      }
      JOINT lCollar
      {
        OFFSET 2.68224 19.2634 -4.8768
        CHANNELS 3 Zrotation Xrotation Yrotation
        JOINT lShldr
        {
          OFFSET 8.77824 -1.95073 1.46304
          CHANNELS 3 Zrotation Xrotation Yrotation
          JOINT lForeArm
          {
            OFFSET 28.1742 -1.7115 0.48768
            CHANNELS 3 Zrotation Xrotation Yrotation
            JOINT lHand
            {
              OFFSET 22.5879 0.773209 7.07136
              CHANNELS 3 Zrotation Xrotation Yrotation
              JOINT lThumb1
              {
                OFFSET 1.2192 -0.487915 3.41376
                CHANNELS 3 Zrotation Xrotation Yrotation
                JOINT lThumb2
                {
                  OFFSET 3.37035 -0.52449 3.41376
                  CHANNELS 3 Zrotation Xrotation Yrotation
                  End Site
                  {
                    OFFSET 1.78271 -1.18214 1.43049
                  }
                }
              }
              JOINT lIndex1
              {
                OFFSET 7.75947 0.938293 5.60832
                CHANNELS 3 Zrotation Xrotation Yrotation
                JOINT lIndex2
                {
                  OFFSET 2.54057 -0.884171 1.56538
                  CHANNELS 3 Zrotation Xrotation Yrotation
                  End Site
                  {
                    OFFSET 1.62519 -0.234802 1.16502
                  }
                }
              }
              JOINT lMid1
              {
                OFFSET 8.24714 1.18213 3.41376
                CHANNELS 3 Zrotation Xrotation Yrotation
                JOINT lMid2
                {
                  OFFSET 3.10165 -0.590103 1.0647
                  CHANNELS 3 Zrotation Xrotation Yrotation
                  End Site
                  {
                    OFFSET 2.48547 -0.328903 0.83742
                  }
                }
              }
              JOINT lRing1
              {
                OFFSET 8.82822 0.546677 1.51678
                CHANNELS 3 Zrotation Xrotation Yrotation
                JOINT lRing2
                {
                  OFFSET 2.60934 -0.819778 -0.0198488
                  CHANNELS 3 Zrotation Xrotation Yrotation
                  End Site
                  {
                    OFFSET 2.33842 -0.294052 0.168128
                  }
                }
              }
              JOINT lPinky1
              {
                OFFSET 8.27202 -0.0477905 -0.4584
                CHANNELS 3 Zrotation Xrotation Yrotation
                JOINT lPinky2
                {
                  OFFSET 1.82734 -0.647385 -0.700984
                  CHANNELS 3 Zrotation Xrotation Yrotation
                  End Site
                  {
                    OFFSET 1.69225 -0.51767 -0.607171
                  }
                }
              }
            }
          }
        }
      }
    }
  }
  JOINT rButtock
  {
    OFFSET -8.77824 4.35084 1.2192
    CHANNELS 3 Zrotation Xrotation Yrotation
    JOINT rThigh
    {
      OFFSET 0 -1.70687 -2.19456
      CHANNELS 3 Zrotation Xrotation Yrotation
      JOINT rShin
      {
        OFFSET 0 -36.8199 0.73152
        CHANNELS 3 Zrotation Xrotation Yrotation
        JOINT rFoot
        {
          OFFSET 0.73152 -45.1104 -5.12064
          CHANNELS 3 Zrotation Xrotation Yrotation
          End Site
          {
            OFFSET -1.1221 -3.69964 12.103
          }
        }
      }
    }
  }
  JOINT lButtock
  {
    OFFSET 8.77824 4.35084 1.2192
    CHANNELS 3 Zrotation Xrotation Yrotation
    JOINT lThigh
    {
      OFFSET 0 -1.70687 -2.19456
      CHANNELS 3 Zrotation Xrotation Yrotation
      JOINT lShin
      {
        OFFSET 0 -36.8199 0.73152
        CHANNELS 3 Zrotation Xrotation Yrotation
        JOINT lFoot
        {
          OFFSET -0.73152 -45.1104 -5.12064
          CHANNELS 3 Zrotation Xrotation Yrotation
          End Site
          {
            OFFSET 1.1221 -3.69964 12.103
          }
        }
      }
    }
  }
}
MOTION
Frames:	4
Frame Time:	0.03333
-44.3868 44.4946 88.26610000000001 -0.769489 47.092443 9.650246 -1.291734 11.214098 -173.386272 -6.094161 9.621572 162.141788 -12.041461 25.492909 -39.600524 34.081942 -20.017333 -6.415665 -0.000635 -0.0 0.002099 -0.000635 -0.0 0.002099 -83.245512 68.286771 86.372527 71.461531 -48.676965 68.397685 -3.988919 -58.200426 103.214386 -7.212874 -0.202128 -2.440687 1.590295 -1.575829 -0.222729 -1.388589 1.311079 0.090233 -151.352843 -17.159284 121.131297 124.783366 -70.426004 68.954107 -4.104011 11.116411 2.539138 80.553016 -77.998594 52.048898 -0.001177 -0.060948 -0.018426 7.84425 23.99529 3.533916 -133.874481 -15.638072 -131.332969 -126.158308 -29.711721 -124.279901 136.303139 48.980275 -140.374538 -125.082041 0.702389 -146.176746 -162.754116 -43.605283 -19.230482 173.771252 10.033711 -141.611185 174.391479 -12.052308 -89.859463 -145.985003 -47.89558 -99.70209 7.26174 10.780404 -4.546823 66.420499 48.387892 -50.155702 39.289455 53.366138 -32.877518 -86.357088 -78.240252 -57.447567 145.121345 0.267374 179.21321 -12.03948 35.177363 5.013216 0.343903 -0.890494 0.317582 128.012302 -30.10926 126.406913 179.997655 75.748532 0.001605 144.399022 -11.663892 -74.231483 -107.10346 5.598236 -89.024169 110.890867 31.867745 160.489591 0.0 -0.001379 0.002108 84.301733 -44.608269 85.991665 118.440173 59.684058 -30.696227 178.196816 -36.210018 81.314129
-44.3951 43.9428 88.3031 -0.608677 46.969806 9.9441 0.806129 14.259739 -74.142573 12.890034 1.39715 62.079932 4.989546 39.067762 148.457546 -26.879463 45.666068 167.930861 -0.001639 0.0 -0.000486 -0.001657 -0.0 0.001433 -40.042089 -86.05598 -61.572926 -173.712524 28.561188 -156.475259 -59.745055 79.012397 -81.063916 178.416198 -16.177858 143.497479 4.417238 -4.400475 -0.51279 -141.123085 -47.017908 122.610973 -7.259114 10.781312 4.546133 117.379655 -61.63256 61.712506 -161.153803 -8.160742 143.464551 -164.049725 -7.04658 143.185536 0.001464 0.063757 0.020569 -156.542479 -39.822252 176.618846 -150.577794 31.033819 -146.363883 15.820433 41.684716 5.970913 6.472279 26.865165 -7.714756 -38.571694 22.349278 -62.995189 -95.004928 39.236949 -75.32156 118.262734 65.454825 -95.291719 -96.57326 -51.196242 -43.017414 169.242931 -55.872532 -136.736301 132.816332 12.806951 -111.109623 87.490101 55.81445 -66.202493 160.097589 -4.901173 -142.969217 169.055836 -22.203669 -143.916186 -0.005061 1.771443 -0.556109 -10.191245 -0.06287 0.07314 -3.654814 10.395652 -3.320002 144.804084 3.15242 141.452057 -0.003137 0.000267 -0.003137 -92.575648 -55.221233 -180.0 -95.549513 -16.681433 98.737191 -76.807666 -26.768337 1.152283 -0.003137 0.000267 -0.003137 85.427154 -44.481534 86.792436 139.135382 62.013467 46.651393 -69.118171 20.618952 -163.308816
-44.3855 43.4959 88.3187 -0.909369 46.916843 9.827491 -1.097912 16.165457 -0.0 7.305241 -13.772082 -10.789786 -4.192305 41.286054 -162.593794 18.019501 51.269827 101.247453 -0.004821 -0.0 0.000231 0.000906 0.0 0.000403 -59.833151 -86.721199 -81.633935 -104.947755 -60.247675 -118.257929 -12.478843 -13.550732 -147.328011 175.702588 -24.509751 143.336954 83.253773 -50.25819 33.616194 -159.976082 -31.1658 128.594553 -83.733334 42.330491 69.989664 -119.260582 42.70364 90.673668 -169.089223 -33.247299 145.375834 -172.389898 -31.345205 143.679617 -0.020873 -1.725906 -0.543408 -156.0363 -15.222337 173.657364 31.497914 83.08306 6.663835 30.887827 75.069943 2.626495 -0.133153 -0.807249 0.177688 -110.117766 -46.26373 -35.450934 -69.037102 -76.685694 79.829802 174.890967 6.551303 -142.065389 85.828918 38.63061 -47.955832 19.278889 -8.283704 -32.104005 10.679428 15.143394 -6.942728 176.603445 -31.021597 -107.612847 82.840627 61.109052 -74.53245 167.178547 -17.366026 -144.039377 0.008078 -0.871975 0.274852 154.10643 -65.022488 178.24724 110.054194 -41.782463 108.127684 146.313286 10.972915 142.14747 0.000881 0.000676 0.000881 -95.656943 -53.673292 85.437274 110.201856 -70.264862 -59.295477 69.105979 -10.450255 14.776282 0.0 -0.001154 0.000168 86.728054 -44.29783 86.483102 115.28019 69.5953 -128.162142 95.696229 5.067469 0.452786
-44.362899999999996 43.125099999999996 88.3335 -1.0851 46.711225 9.834927 1.56826 14.31959 -79.636642 12.530933 2.290952 67.255741 7.614644 27.375384 75.635776 -40.498807 -0.775621 -130.523246 -0.004352 0.0 -0.00194 -0.004352 0.0 -0.00194 3.268972 -26.755863 -5.2411 -132.734206 -22.626955 -175.644759 157.148683 8.204446 -62.418962 -22.14982 36.400374 6.082856 -5.594367 5.417024 1.117529 -66.177276 25.482639 61.946226 10.7464 -19.048172 -4.725133 -169.714896 -27.976297 109.003916 -158.520902 -0.192012 142.146164 -161.214194 1.249629 142.232735 0.002553 0.02251 0.007637 -155.853468 -8.256167 172.845088 -148.606719 23.709677 -144.774749 -22.950921 -37.97836 -24.214354 149.905483 22.421973 -154.97579 -125.175271 -12.219636 -175.546018 -109.128485 37.131087 -35.577669 86.715003 67.857546 -65.18036 -71.830888 -48.263858 -25.79193 141.303873 7.614916 -110.050986 100.823998 37.734335 -85.16239 -11.950163 -10.213554 6.840576 -2.101105 -6.305292 1.080942 167.894213 -19.015722 -144.279552 -0.004455 0.918172 -0.287498 152.748159 25.112249 -168.028365 75.777846 -51.666992 74.25002 84.408095 -52.989384 84.877141 0.0 -0.000924 0.000774 -94.872075 -52.376416 0.0 99.8696 8.661093 -17.428211 30.704798 -60.563676 -33.523124 0.003635 0.000908 0.003635 87.716275 -44.036886 87.891899 123.479655 58.793801 -30.339355 -176.135433 -54.404349 94.962173
